<?xml version="1.0" encoding="utf-8"?>
<!-- Generator: Adobe Illustrator 16.0.0, SVG Export Plug-In . SVG Version: 6.00 Build 0)  -->
<!DOCTYPE svg PUBLIC "-//W3C//DTD SVG 1.1//EN" "http://www.w3.org/Graphics/SVG/1.1/DTD/svg11.dtd">
<svg version="1.1" id="Layer_1" xmlns="http://www.w3.org/2000/svg" xmlns:xlink="http://www.w3.org/1999/xlink" x="0px" y="0px"
	 width="767px" height="217px" viewBox="0 0 767 217" enable-background="new 0 0 767 217" xml:space="preserve">
<g>
	<path fill="#FFFFFF" d="M122.989,74.861H96.763l-7.388,17.361h-7.572l28.351-64.55l27.611,64.55h-7.572L122.989,74.861z
		 M120.312,68.397l-10.343-24.657L99.441,68.397H120.312z"/>
	<path fill="#FFFFFF" d="M185.602,30.628v55.13h16.991v6.464h-23.825V30.628H185.602z"/>
	<path fill="#FFFFFF" d="M250.982,30.628v55.13h16.991v6.464h-23.825V30.628H250.982z"/>
	<path fill="#FFFFFF" d="M316.363,30.628v61.595h-6.833V30.628H316.363z"/>
	<path fill="#FFFFFF" d="M398.552,74.861h-26.227l-7.388,17.361h-7.572l28.35-64.55l27.612,64.55h-7.573L398.552,74.861z
		 M395.873,68.397L385.53,43.741l-10.527,24.657H395.873z"/>
	<path fill="#FFFFFF" d="M454.329,92.223V28.042l48.021,50.329V30.628h6.833v64.365l-48.02-50.329v47.558H454.329z"/>
	<path fill="#FFFFFF" d="M604.485,44.203c-1.939-1.939-4.895-4.248-8.034-5.726c-3.232-1.478-7.019-2.401-10.62-2.401
		c-14.222,0-24.749,11.451-24.749,25.672c0,16.714,13.575,25.118,24.842,25.118c4.155,0,8.219-1.201,11.451-2.863
		c3.509-1.755,6.002-4.063,7.11-5.171v8.496c-6.834,4.895-13.944,6.003-18.562,6.003c-18.285,0-31.859-13.852-31.859-31.675
		c0-18.377,13.76-32.044,32.229-32.044c3.693,0,10.805,0.462,18.192,6.095V44.203z"/>
	<path fill="#FFFFFF" d="M681.318,37.092H656.2v18.285h24.38v6.464H656.2v23.917h25.118v6.464h-31.951V30.628h31.951V37.092z"/>
	<path fill="#FFFFFF" d="M85.311,138.537c-1.939-1.939-4.895-4.248-8.034-5.726c-3.232-1.478-7.019-2.401-10.62-2.401
		c-14.221,0-24.748,11.451-24.748,25.672c0,16.714,13.574,25.118,24.841,25.118c4.155,0,8.219-1.201,11.451-2.863
		c3.509-1.755,6.002-4.063,7.11-5.171v8.496c-6.834,4.895-13.944,6.003-18.562,6.003c-18.284,0-31.859-13.852-31.859-31.675
		c0-18.377,13.76-32.044,32.229-32.044c3.694,0,10.805,0.462,18.192,6.095V138.537z"/>
	<path fill="#FFFFFF" d="M164.176,169.195h-26.227l-7.388,17.361h-7.572l28.35-64.55l27.612,64.55h-7.573L164.176,169.195z
		 M161.497,162.731l-10.343-24.657l-10.527,24.657H161.497z"/>
	<path fill="#FFFFFF" d="M230.943,131.426v55.131h-6.834v-55.131h-14.96v-6.464h36.754v6.464H230.943z"/>
	<path fill="#FFFFFF" d="M304.543,131.426v55.131h-6.833v-55.131h-14.96v-6.464h36.753v6.464H304.543z"/>
	<path fill="#FFFFFF" d="M393.012,131.426h-25.118v18.285h24.38v6.464h-24.38v23.917h25.118v6.464h-31.951v-61.595h31.951V131.426z"
		/>
	<path fill="#FFFFFF" d="M447.774,124.962c4.155,0,10.343,0.277,14.96,3.417c3.602,2.401,6.741,7.111,6.741,13.667
		c0,9.419-6.188,16.345-15.515,16.992l19.578,27.519h-8.312l-18.746-26.965h-1.755v26.965h-6.833v-61.595H447.774z M444.727,153.497
		h4.341c8.495,0,13.574-4.063,13.574-11.266c0-3.417-1.016-6.833-4.894-9.05c-2.771-1.57-5.91-1.755-8.865-1.755h-4.156V153.497z"/>
	<path fill="#FFFFFF" d="M523.406,124.962v61.595h-6.833v-61.595H523.406z"/>
	<path fill="#FFFFFF" d="M571.611,186.557v-64.181l48.02,50.329v-47.743h6.834v64.365l-48.02-50.329v47.558H571.611z"/>
	<path fill="#FFFFFF" d="M706.438,155.621h25.673v1.478c0,6.833-2.032,14.221-5.91,19.485c-1.847,2.494-8.772,11.082-22.902,11.082
		c-18.284,0-31.952-13.944-31.952-31.86c0-17.915,13.76-31.859,32.137-31.859c5.91,0,12.836,1.478,18.839,6.095
		c2.771,2.124,5.356,4.894,7.11,7.295l-5.078,4.618c-1.755-2.494-3.787-4.71-5.818-6.372c-2.955-2.401-7.572-5.171-14.96-5.171
		c-14.868,0-25.21,11.174-25.21,25.487c0,16.807,13.39,25.303,25.025,25.303c8.219,0,15.329-4.156,18.838-10.343
		c1.109-1.939,2.309-4.895,2.494-8.773h-18.285V155.621z"/>
</g>
</svg>
