<?xml version="1.0" encoding="utf-8"?>
<!-- Generator: Adobe Illustrator 16.0.0, SVG Export Plug-In . SVG Version: 6.00 Build 0)  -->
<!DOCTYPE svg PUBLIC "-//W3C//DTD SVG 1.1//EN" "http://www.w3.org/Graphics/SVG/1.1/DTD/svg11.dtd">
<svg version="1.1" id="Layer_1" xmlns="http://www.w3.org/2000/svg" xmlns:xlink="http://www.w3.org/1999/xlink" x="0px" y="0px"
	 width="767px" height="217px" viewBox="0 0 767 217" enable-background="new 0 0 767 217" xml:space="preserve">
<g>
	<path fill="#FFFFFF" d="M95.809,75.161H69.49l-6.741,14.868H52.591L83.25,24.832l29.181,65.196h-10.158L95.809,75.161z
		 M92.022,66.295l-9.143-20.87l-9.511,20.87H92.022z"/>
	<path fill="#FFFFFF" d="M161.929,28.434v52.729h18.1v8.865H152.51V28.434H161.929z"/>
	<path fill="#FFFFFF" d="M230.636,28.434v52.729h18.1v8.865h-27.519V28.434H230.636z"/>
	<path fill="#FFFFFF" d="M299.343,28.434v61.595h-9.419V28.434H299.343z"/>
	<path fill="#FFFFFF" d="M382.639,75.161H356.32l-6.741,14.868h-10.158l30.659-65.196l29.182,65.196h-10.158L382.639,75.161z
		 M378.853,66.295l-9.142-20.87l-9.512,20.87H378.853z"/>
	<path fill="#FFFFFF" d="M439.34,90.028v-65.75l44.696,46.819V28.434h9.419v65.381L448.76,46.995v43.033H439.34z"/>
	<path fill="#FFFFFF" d="M586.172,42.839c-6.834-6.187-13.205-6.833-16.715-6.833c-13.391,0-22.439,9.881-22.439,23.456
		c0,13.021,9.419,23.086,22.531,23.086c7.389,0,13.113-3.786,16.623-7.111v11.174c-6.188,3.694-12.651,4.618-16.899,4.618
		c-11.174,0-18.192-5.079-21.794-8.496c-7.203-6.741-9.881-14.591-9.881-23.271c0-11.359,4.709-19.208,9.881-24.103
		c6.372-6.002,13.76-8.034,22.256-8.034c5.633,0,11.081,1.016,16.438,4.433V42.839z"/>
	<path fill="#FFFFFF" d="M664.113,37.299h-24.564v15.606h23.826v8.865h-23.826v19.393h24.564v8.865H630.13V28.434h33.983V37.299z"/>
	<path fill="#FFFFFF" d="M57.9,137.173c-6.833-6.187-13.206-6.833-16.715-6.833c-13.39,0-22.44,9.881-22.44,23.456
		c0,13.021,9.419,23.086,22.532,23.086c7.388,0,13.113-3.786,16.623-7.111v11.174c-6.188,3.694-12.651,4.618-16.899,4.618
		c-11.174,0-18.192-5.079-21.794-8.496c-7.203-6.741-9.881-14.591-9.881-23.271c0-11.359,4.709-19.208,9.881-24.103
		c6.372-6.002,13.76-8.034,22.255-8.034c5.633,0,11.082,1.016,16.438,4.433V137.173z"/>
	<path fill="#FFFFFF" d="M137.134,169.495h-26.319l-6.741,14.868H93.916l30.659-65.196l29.182,65.196h-10.158L137.134,169.495z
		 M133.348,160.629l-9.142-20.87l-9.512,20.87H133.348z"/>
	<path fill="#FFFFFF" d="M207.227,131.633v52.729h-9.419v-52.729h-14.129v-8.865h37.677v8.865H207.227z"/>
	<path fill="#FFFFFF" d="M281.935,131.633v52.729h-9.419v-52.729h-14.129v-8.865h37.677v8.865H281.935z"/>
	<path fill="#FFFFFF" d="M370.68,131.633h-24.564v15.606h23.825v8.865h-23.825v19.393h24.564v8.865h-33.983v-61.595h33.983V131.633z
		"/>
	<path fill="#FFFFFF" d="M426.182,122.768c7.48,0,12.282,0.923,16.253,3.602c6.741,4.525,7.295,11.82,7.295,14.498
		c0,8.865-5.449,15.33-13.667,17.176l19.208,26.319h-11.358l-17.638-25.21h-1.662v25.21h-9.419v-61.595H426.182z M424.612,151.025
		h2.955c2.585,0,13.113-0.277,13.113-10.066c0-8.68-8.219-9.512-12.836-9.512h-3.232V151.025z"/>
	<path fill="#FFFFFF" d="M506.247,122.768v61.595h-9.419v-61.595H506.247z"/>
	<path fill="#FFFFFF" d="M553.344,184.362v-65.75l44.695,46.819v-42.664h9.42v65.381l-44.695-46.819v43.033H553.344z"/>
	<path fill="#FFFFFF" d="M686.416,152.318h25.395v0.461c0,10.528-3.14,19.116-9.143,24.934c-6.371,6.187-13.943,7.85-20.962,7.85
		c-8.958,0-15.329-2.586-20.963-8.404c-6.003-6.187-9.142-14.406-9.142-23.271c0-9.604,3.878-17.916,8.957-22.994
		c5.264-5.356,13.668-9.235,23.179-9.235c5.541,0,11.267,1.201,16.068,3.878c5.079,2.863,8.219,6.464,9.974,9.235l-7.48,5.264
		c-1.847-2.586-4.617-5.356-7.572-7.019c-3.416-2.031-7.11-2.678-10.896-2.678c-8.034,0-13.205,3.324-16.253,6.372
		c-4.063,4.063-6.557,10.62-6.557,17.269c0,6.187,2.309,12.375,6.372,16.715c4.248,4.525,9.512,6.187,15.422,6.187
		c5.355,0,9.788-1.57,13.76-5.449c3.416-3.324,4.801-6.926,5.171-10.435h-15.329V152.318z"/>
</g>
</svg>
