<?xml version="1.0" encoding="utf-8"?>
<!-- Generator: Adobe Illustrator 16.0.0, SVG Export Plug-In . SVG Version: 6.00 Build 0)  -->
<!DOCTYPE svg PUBLIC "-//W3C//DTD SVG 1.1//EN" "http://www.w3.org/Graphics/SVG/1.1/DTD/svg11.dtd">
<svg version="1.1" id="Layer_1" xmlns="http://www.w3.org/2000/svg" xmlns:xlink="http://www.w3.org/1999/xlink" x="0px" y="0px"
	 width="767px" height="217px" viewBox="0 0 767 217" enable-background="new 0 0 767 217" xml:space="preserve">
<g>
	<path fill="#FFFFFF" d="M120.881,77.733H95.232l-6.569,14.489h-9.9l29.879-63.538l28.439,63.538h-9.9L120.881,77.733z
		 M117.191,69.093l-8.91-20.339l-9.27,20.339H117.191z"/>
	<path fill="#FFFFFF" d="M186.221,32.195v51.388h17.639v8.64h-26.819V32.195H186.221z"/>
	<path fill="#FFFFFF" d="M254.081,32.195v51.388h17.639v8.64h-26.819V32.195H254.081z"/>
	<path fill="#FFFFFF" d="M321.941,32.195v60.027h-9.18V32.195H321.941z"/>
	<path fill="#FFFFFF" d="M404.02,77.733H378.37l-6.569,14.489h-9.9l29.878-63.538l28.439,63.538h-9.9L404.02,77.733z M400.33,69.093
		l-8.91-20.339l-9.27,20.339H400.33z"/>
	<path fill="#FFFFFF" d="M460.18,92.222V28.145l43.559,45.628V32.195h9.18v63.717l-43.559-45.628v41.938H460.18z"/>
	<path fill="#FFFFFF" d="M604.177,46.234c-6.66-6.03-12.87-6.66-16.29-6.66c-13.049,0-21.869,9.63-21.869,22.859
		c0,12.689,9.18,22.499,21.96,22.499c7.199,0,12.779-3.69,16.199-6.93v10.889c-6.03,3.6-12.33,4.5-16.47,4.5
		c-10.89,0-17.729-4.95-21.239-8.28c-7.02-6.57-9.63-14.219-9.63-22.679c0-11.07,4.59-18.719,9.63-23.489
		c6.21-5.85,13.409-7.83,21.689-7.83c5.489,0,10.8,0.99,16.02,4.32V46.234z"/>
	<path fill="#FFFFFF" d="M681.037,40.834h-23.939v15.209h23.22v8.64h-23.22v18.899h23.939v8.64h-33.119V32.195h33.119V40.834z"/>
	<path fill="#FFFFFF" d="M83.486,141.234c-6.66-6.029-12.869-6.659-16.289-6.659c-13.049,0-21.869,9.629-21.869,22.858
		c0,12.689,9.18,22.499,21.959,22.499c7.2,0,12.78-3.689,16.199-6.93v10.89c-6.03,3.6-12.329,4.5-16.469,4.5
		c-10.89,0-17.729-4.95-21.239-8.279c-7.02-6.57-9.629-14.22-9.629-22.68c0-11.069,4.59-18.719,9.629-23.489
		c6.21-5.85,13.41-7.829,21.689-7.829c5.49,0,10.799,0.99,16.019,4.319V141.234z"/>
	<path fill="#FFFFFF" d="M161.606,172.733h-25.649l-6.569,14.489h-9.9l29.879-63.537l28.439,63.537h-9.9L161.606,172.733z
		 M157.917,164.094l-8.91-20.339l-9.27,20.339H157.917z"/>
	<path fill="#FFFFFF" d="M230.817,135.835v51.388h-9.18v-51.388h-13.77v-8.64h36.719v8.64H230.817z"/>
	<path fill="#FFFFFF" d="M304.526,135.835v51.388h-9.18v-51.388h-13.77v-8.64h36.719v8.64H304.526z"/>
	<path fill="#FFFFFF" d="M391.914,135.835h-23.938v15.209h23.219v8.64h-23.219v18.899h23.938v8.64h-33.118v-60.027h33.118V135.835z"
		/>
	<path fill="#FFFFFF" d="M446.905,127.195c7.29,0,11.97,0.899,15.84,3.51c6.569,4.41,7.109,11.52,7.109,14.129
		c0,8.64-5.31,14.939-13.319,16.739l18.719,25.649h-11.069l-17.189-24.569h-1.62v24.569h-9.18v-60.027H446.905z M445.375,154.734
		h2.881c2.52,0,12.779-0.271,12.779-9.81c0-8.46-8.01-9.271-12.51-9.271h-3.15V154.734z"/>
	<path fill="#FFFFFF" d="M525.835,127.195v60.027h-9.179v-60.027H525.835z"/>
	<path fill="#FFFFFF" d="M572.635,187.223v-64.077l43.559,45.628v-41.578h9.18v63.717l-43.559-45.628v41.938H572.635z"/>
	<path fill="#FFFFFF" d="M703.222,155.994h24.749v0.45c0,10.259-3.06,18.629-8.909,24.299c-6.21,6.029-13.59,7.649-20.43,7.649
		c-8.729,0-14.938-2.52-20.429-8.189c-5.85-6.03-8.91-14.04-8.91-22.68c0-9.359,3.78-17.459,8.73-22.408
		c5.13-5.221,13.319-9,22.589-9c5.399,0,10.979,1.17,15.659,3.779c4.95,2.79,8.01,6.3,9.72,9l-7.29,5.13
		c-1.8-2.52-4.5-5.22-7.38-6.84c-3.329-1.979-6.93-2.609-10.619-2.609c-7.83,0-12.869,3.239-15.839,6.209
		c-3.96,3.96-6.391,10.35-6.391,16.83c0,6.029,2.25,12.06,6.21,16.289c4.14,4.41,9.27,6.029,15.029,6.029
		c5.22,0,9.54-1.529,13.41-5.31c3.329-3.239,4.68-6.75,5.039-10.17h-14.939V155.994z"/>
</g>
</svg>
