<?xml version="1.0" encoding="utf-8"?>
<!-- Generator: Adobe Illustrator 16.0.0, SVG Export Plug-In . SVG Version: 6.00 Build 0)  -->
<!DOCTYPE svg PUBLIC "-//W3C//DTD SVG 1.1//EN" "http://www.w3.org/Graphics/SVG/1.1/DTD/svg11.dtd">
<svg version="1.1" id="Layer_1" xmlns="http://www.w3.org/2000/svg" xmlns:xlink="http://www.w3.org/1999/xlink" x="0px" y="0px"
	 width="767px" height="217px" viewBox="0 0 767 217" enable-background="new 0 0 767 217" xml:space="preserve">
<g>
	<path fill="#FFFFFF" d="M117.809,77.161H91.49l-6.741,14.868H74.591l30.659-65.197l29.181,65.196h-10.158L117.809,77.161z
		 M114.022,68.295l-9.143-20.87l-9.511,20.87H114.022z"/>
	<path fill="#FFFFFF" d="M183.929,30.434v52.729h18.1v8.865H174.51V30.434H183.929z"/>
	<path fill="#FFFFFF" d="M252.636,30.434v52.729h18.1v8.865h-27.519V30.434H252.636z"/>
	<path fill="#FFFFFF" d="M321.343,30.434v61.595h-9.419V30.434H321.343z"/>
	<path fill="#FFFFFF" d="M404.639,77.161H378.32l-6.741,14.868h-10.158l30.659-65.196l29.182,65.196h-10.157L404.639,77.161z
		 M400.853,68.295l-9.142-20.87l-9.512,20.87H400.853z"/>
	<path fill="#FFFFFF" d="M461.34,92.028v-65.75l44.696,46.819V30.434h9.419v65.381l-44.695-46.82v43.033H461.34z"/>
	<path fill="#FFFFFF" d="M608.172,44.839c-6.834-6.187-13.205-6.833-16.715-6.833c-13.391,0-22.439,9.881-22.439,23.456
		c0,13.021,9.419,23.086,22.531,23.086c7.389,0,13.113-3.786,16.623-7.111v11.174c-6.188,3.694-12.651,4.618-16.898,4.618
		c-11.175,0-18.192-5.079-21.795-8.496c-7.202-6.741-9.881-14.591-9.881-23.271c0-11.359,4.709-19.208,9.881-24.103
		c6.372-6.002,13.761-8.034,22.257-8.034c5.633,0,11.081,1.016,16.438,4.433L608.172,44.839L608.172,44.839z"/>
	<path fill="#FFFFFF" d="M686.113,39.299h-24.564v15.606h23.826v8.865h-23.826v19.393h24.564v8.865H652.13V30.434h33.983V39.299
		L686.113,39.299z"/>
	<path fill="#FFFFFF" d="M79.9,139.173c-6.833-6.187-13.206-6.833-16.715-6.833c-13.39,0-22.44,9.881-22.44,23.456
		c0,13.021,9.419,23.086,22.532,23.086c7.388,0,13.113-3.786,16.623-7.11v11.174c-6.188,3.693-12.651,4.617-16.899,4.617
		c-11.174,0-18.192-5.078-21.794-8.496c-7.203-6.74-9.881-14.59-9.881-23.271c0-11.358,4.709-19.208,9.881-24.103
		c6.372-6.002,13.76-8.034,22.255-8.034c5.633,0,11.082,1.016,16.438,4.433V139.173z"/>
	<path fill="#FFFFFF" d="M159.134,171.495h-26.319l-6.741,14.868h-10.158l30.659-65.196l29.182,65.196h-10.158L159.134,171.495z
		 M155.348,162.629l-9.142-20.87l-9.512,20.87H155.348z"/>
	<path fill="#FFFFFF" d="M229.227,133.633v52.729h-9.419v-52.729h-14.129v-8.865h37.677v8.865H229.227z"/>
	<path fill="#FFFFFF" d="M303.935,133.633v52.729h-9.419v-52.729h-14.129v-8.865h37.677v8.865H303.935z"/>
	<path fill="#FFFFFF" d="M392.68,133.633h-24.563v15.606h23.825v8.864h-23.825v19.394h24.563v8.864h-33.982v-61.594h33.982V133.633z
		"/>
	<path fill="#FFFFFF" d="M448.182,124.768c7.48,0,12.282,0.924,16.253,3.603c6.741,4.524,7.296,11.819,7.296,14.498
		c0,8.864-5.449,15.33-13.667,17.176l19.208,26.319h-11.358l-17.638-25.211h-1.662v25.211h-9.419v-61.596H448.182L448.182,124.768z
		 M446.612,153.025h2.955c2.585,0,13.112-0.277,13.112-10.066c0-8.68-8.219-9.512-12.836-9.512h-3.231V153.025z"/>
	<path fill="#FFFFFF" d="M528.247,124.768v61.596h-9.419v-61.596H528.247z"/>
	<path fill="#FFFFFF" d="M575.344,186.361v-65.75l44.695,46.82v-42.664h9.42v65.381l-44.695-46.819v43.032H575.344z"/>
	<path fill="#FFFFFF" d="M708.416,154.318h25.395v0.461c0,10.527-3.14,19.115-9.143,24.934c-6.371,6.188-13.943,7.85-20.962,7.85
		c-8.958,0-15.329-2.586-20.963-8.403c-6.003-6.187-9.143-14.406-9.143-23.271c0-9.604,3.878-17.916,8.957-22.994
		c5.265-5.356,13.668-9.235,23.18-9.235c5.541,0,11.267,1.2,16.067,3.878c5.079,2.863,8.22,6.464,9.975,9.234l-7.48,5.265
		c-1.847-2.586-4.617-5.356-7.572-7.019c-3.416-2.031-7.109-2.679-10.896-2.679c-8.034,0-13.205,3.324-16.253,6.372
		c-4.063,4.062-6.557,10.62-6.557,17.27c0,6.187,2.309,12.375,6.371,16.715c4.248,4.524,9.513,6.187,15.423,6.187
		c5.354,0,9.788-1.569,13.76-5.448c3.416-3.324,4.801-6.927,5.171-10.436h-15.329L708.416,154.318L708.416,154.318z"/>
</g>
</svg>
