<?xml version="1.0" encoding="utf-8"?>
<!-- Generator: Adobe Illustrator 16.0.0, SVG Export Plug-In . SVG Version: 6.00 Build 0)  -->
<!DOCTYPE svg PUBLIC "-//W3C//DTD SVG 1.1//EN" "http://www.w3.org/Graphics/SVG/1.1/DTD/svg11.dtd">
<svg version="1.1" id="Layer_1" xmlns="http://www.w3.org/2000/svg" xmlns:xlink="http://www.w3.org/1999/xlink" x="0px" y="0px"
	 width="45.375px" height="45.5px" viewBox="-6.863 -1.624 45.375 45.5" enable-background="new -6.863 -1.624 45.375 45.5"
	 xml:space="preserve">
<path fill="#EBEBEB" d="M16.013,43.703l-22.56-22.559l22.56-22.559l22.558,22.559L16.013,43.703z M-3.719,21.145l19.731,19.73
	l19.73-19.73l-19.73-19.73L-3.719,21.145z"/>
<g>
	<path fill="#5B5B5B" d="M16.797,22.937c0,0.47,0.013,0.816,0.04,1.04c0.026,0.224,0.088,0.433,0.184,0.624
		c0.086,0.171,0.188,0.302,0.305,0.393c0.117,0.09,0.262,0.162,0.432,0.215c0.139,0.055,0.33,0.086,0.576,0.097v0.336h-4.64v-0.336
		c0.235-0.011,0.427-0.042,0.576-0.097c0.17-0.053,0.314-0.125,0.432-0.215c0.117-0.091,0.218-0.222,0.304-0.393
		c0.096-0.191,0.157-0.4,0.184-0.624c0.026-0.224,0.04-0.57,0.04-1.04v-5.12c0-0.469-0.014-0.816-0.04-1.04
		c-0.027-0.224-0.088-0.432-0.184-0.624c-0.085-0.171-0.187-0.301-0.304-0.392c-0.118-0.091-0.262-0.163-0.432-0.216
		c-0.149-0.042-0.341-0.074-0.576-0.096v-0.336h4.64v0.336c-0.246,0.021-0.438,0.053-0.576,0.096
		c-0.17,0.054-0.314,0.125-0.432,0.216s-0.219,0.221-0.305,0.392c-0.096,0.192-0.157,0.4-0.184,0.624
		c-0.027,0.224-0.04,0.57-0.04,1.04V22.937z"/>
</g>
</svg>
