<?xml version="1.0" encoding="utf-8"?>
<!-- Generator: Adobe Illustrator 16.0.0, SVG Export Plug-In . SVG Version: 6.00 Build 0)  -->
<!DOCTYPE svg PUBLIC "-//W3C//DTD SVG 1.1//EN" "http://www.w3.org/Graphics/SVG/1.1/DTD/svg11.dtd">
<svg version="1.1" id="Layer_1" xmlns="http://www.w3.org/2000/svg" xmlns:xlink="http://www.w3.org/1999/xlink" x="0px" y="0px"
	 width="45.375px" height="45.5px" viewBox="-6.863 -1.624 45.375 45.5" enable-background="new -6.863 -1.624 45.375 45.5"
	 xml:space="preserve">
<g id="S7eRIw_1_">
	
		<image overflow="visible" width="1400" height="768" id="S7eRIw" xlink:href="B1EAE9AE6FB90779.jpg"  transform="matrix(1 0 0 1 -1529.4788 -507)">
	</image>
</g>
<rect x="1.061" y="6.193" transform="matrix(0.7071 -0.7071 0.7071 0.7071 -10.2616 17.5157)" fill="none" stroke="#EBEBEB" stroke-width="2" stroke-miterlimit="10" width="29.903" height="29.904"/>
<g>
	<path fill="#5B5B5B" d="M13.797,22.937c0,0.47,0.013,0.816,0.04,1.04c0.026,0.224,0.088,0.433,0.184,0.624
		c0.085,0.171,0.187,0.302,0.304,0.393c0.117,0.09,0.261,0.162,0.432,0.215c0.139,0.055,0.331,0.086,0.576,0.097v0.336h-4.64v-0.336
		c0.235-0.011,0.427-0.042,0.576-0.097c0.17-0.053,0.314-0.125,0.432-0.215c0.117-0.091,0.218-0.222,0.304-0.393
		c0.096-0.191,0.157-0.4,0.184-0.624c0.026-0.224,0.04-0.57,0.04-1.04v-5.12c0-0.469-0.014-0.816-0.04-1.04
		c-0.027-0.224-0.088-0.432-0.184-0.624c-0.085-0.171-0.187-0.301-0.304-0.392c-0.118-0.091-0.262-0.163-0.432-0.216
		c-0.149-0.042-0.341-0.074-0.576-0.096v-0.336h4.64v0.336c-0.246,0.021-0.438,0.053-0.576,0.096
		c-0.17,0.054-0.314,0.125-0.432,0.216c-0.118,0.091-0.219,0.221-0.304,0.392c-0.096,0.192-0.158,0.4-0.184,0.624
		c-0.027,0.224-0.04,0.57-0.04,1.04V22.937z"/>
	<path fill="#5B5B5B" d="M19.366,22.937c0,0.47,0.012,0.816,0.039,1.04s0.088,0.433,0.184,0.624
		c0.086,0.171,0.188,0.302,0.305,0.393c0.117,0.09,0.262,0.162,0.432,0.215c0.139,0.055,0.33,0.086,0.576,0.097v0.336H16.26v-0.336
		c0.235-0.011,0.427-0.042,0.576-0.097c0.172-0.053,0.314-0.125,0.432-0.215c0.117-0.091,0.219-0.222,0.305-0.393
		c0.096-0.191,0.158-0.4,0.184-0.624c0.027-0.224,0.041-0.57,0.041-1.04v-5.12c0-0.469-0.014-0.816-0.041-1.04
		c-0.025-0.224-0.088-0.432-0.184-0.624c-0.086-0.171-0.188-0.301-0.305-0.392s-0.26-0.163-0.432-0.216
		c-0.149-0.042-0.341-0.074-0.576-0.096v-0.336h4.641v0.336c-0.246,0.021-0.438,0.053-0.576,0.096
		c-0.17,0.054-0.314,0.125-0.432,0.216s-0.219,0.221-0.305,0.392c-0.096,0.192-0.156,0.4-0.184,0.624
		c-0.027,0.224-0.039,0.57-0.039,1.04V22.937z"/>
</g>
</svg>
