<?xml version="1.0" encoding="utf-8"?>
<!-- Generator: Adobe Illustrator 16.0.0, SVG Export Plug-In . SVG Version: 6.00 Build 0)  -->
<!DOCTYPE svg PUBLIC "-//W3C//DTD SVG 1.1//EN" "http://www.w3.org/Graphics/SVG/1.1/DTD/svg11.dtd">
<svg version="1.1" id="Layer_1" xmlns="http://www.w3.org/2000/svg" xmlns:xlink="http://www.w3.org/1999/xlink" x="0px" y="0px"
	 width="279.085px" height="60.784px" viewBox="0 0 279.085 60.784" enable-background="new 0 0 279.085 60.784"
	 xml:space="preserve">
<path fill-rule="evenodd" clip-rule="evenodd" fill="#FFFFFF" d="M191.56,42.106v0.369h0.375h11.055h0.373l0.001-0.369v-1.873
	v-0.367h-0.374h-8.651v-8.721h8.651h0.374v-0.368v-1.872v-0.37h-0.374h-8.651v-6.127h8.651h0.374v-0.37v-1.871v-0.37h-0.374h-11.055
	h-0.375v0.37V42.106L191.56,42.106z"/>
<path fill-rule="evenodd" clip-rule="evenodd" fill="#FFFFFF" d="M180.198,24.46l0.606,0.515l0.011-0.787l0.031-2.207l0.002-0.181
	l-0.143-0.112c-0.736-0.567-1.539-1.039-2.4-1.407v0c-0.17-0.073-0.34-0.141-0.508-0.203c-0.166-0.061-0.34-0.121-0.521-0.178
	l-0.001-0.001l-0.004-0.001v0.001c-0.632-0.2-1.285-0.349-1.96-0.447c-0.68-0.1-1.382-0.15-2.11-0.15
	c-0.819,0-1.625,0.075-2.417,0.222c-0.79,0.147-1.567,0.367-2.327,0.659h-0.002c-1.098,0.421-2.08,0.965-2.947,1.624
	c-0.171,0.129-0.336,0.262-0.494,0.397c-0.162,0.138-0.318,0.28-0.47,0.425l-0.004,0.001l-0.003,0.002l0.002,0.001
	c-0.8,0.767-1.467,1.636-1.999,2.61c-0.103,0.19-0.204,0.383-0.298,0.581c-0.088,0.188-0.177,0.389-0.262,0.602h-0.001l-0.001,0.003
	v0.001c-0.249,0.616-0.446,1.247-0.59,1.894c-0.025,0.106-0.05,0.235-0.078,0.381c-0.146,0.782-0.223,1.596-0.223,2.437l0,0v0.007
	c0,1.23,0.146,2.392,0.444,3.485c0.058,0.209,0.121,0.42,0.19,0.631c0.07,0.209,0.147,0.415,0.226,0.615l0,0l0.003,0.006v0.002
	c0.415,1.039,0.975,1.988,1.674,2.848c0.14,0.169,0.281,0.333,0.424,0.49c0.143,0.154,0.295,0.312,0.456,0.469h-0.001l0.002,0.003
	h0.002c0.785,0.764,1.684,1.409,2.693,1.931c0.199,0.102,0.398,0.198,0.6,0.287c0.212,0.096,0.42,0.182,0.625,0.261l0,0l0,0
	l0.003,0.003c0.636,0.243,1.284,0.439,1.94,0.58h0.002c0.115,0.025,0.244,0.051,0.386,0.076c0.792,0.146,1.604,0.223,2.438,0.223
	l0,0h0.006c0.884,0,1.779-0.095,2.681-0.283c0.178-0.037,0.353-0.076,0.526-0.119c0.161-0.041,0.337-0.088,0.527-0.144l0.009-0.001
	c0.903-0.262,1.774-0.603,2.608-1.025c0.17-0.086,0.331-0.171,0.483-0.256c0.153-0.084,0.312-0.176,0.478-0.275l0.003-0.002
	l0.182-0.107v-0.206v-2.338v-0.759l-0.608,0.469c-0.762,0.586-1.555,1.07-2.375,1.449c-0.16,0.072-0.321,0.144-0.484,0.209
	c-0.164,0.068-0.328,0.129-0.49,0.188v-0.001l-0.004,0.001v0.002c-0.492,0.172-0.989,0.309-1.494,0.41
	c-0.078,0.016-0.178,0.033-0.295,0.055c-0.606,0.104-1.219,0.156-1.832,0.156v-0.001h-0.007c-0.64,0-1.257-0.056-1.849-0.167
	c-0.592-0.108-1.166-0.275-1.721-0.495c-0.799-0.319-1.532-0.737-2.196-1.261h-0.001c-0.119-0.092-0.246-0.198-0.381-0.318
	c-0.129-0.113-0.252-0.228-0.367-0.343v-0.002l-0.002-0.001l-0.001,0.001c-0.624-0.618-1.133-1.304-1.526-2.052
	c-0.076-0.143-0.148-0.289-0.217-0.444h-0.002c-0.064-0.142-0.128-0.296-0.191-0.461v0.001l-0.001-0.002
	c-0.175-0.459-0.314-0.95-0.419-1.468c-0.023-0.117-0.044-0.221-0.057-0.305V33.16c-0.107-0.632-0.161-1.301-0.161-2.002h0.001
	v-0.009c0-2.008,0.447-3.743,1.344-5.196c0.174-0.281,0.366-0.552,0.574-0.815c0.207-0.261,0.433-0.512,0.674-0.754l0.002,0.001
	l0.002-0.004l0.002-0.002c0.864-0.861,1.857-1.506,2.98-1.936c1.127-0.433,2.391-0.649,3.789-0.649c0.619,0,1.221,0.055,1.805,0.163
	c0.587,0.106,1.158,0.271,1.717,0.487c0.559,0.216,1.111,0.493,1.658,0.827C179.115,23.607,179.659,24.004,180.198,24.46
	L180.198,24.46z"/>
<path fill-rule="evenodd" clip-rule="evenodd" fill="#FFFFFF" d="M132.12,42.106v0.369h0.374h1.906h0.374v-0.369V25.369
	l15.134,17.62l0.66,0.769v-1.006V20.167v-0.37h-0.374h-1.89h-0.375v0.37v16.421l-15.149-17.59l-0.66-0.767v1.003V42.106
	L132.12,42.106z"/>
<path fill-rule="evenodd" clip-rule="evenodd" fill="#FFFFFF" d="M105.758,42.476h0.255l0.093-0.234l1.814-4.562
	c0.977-2.463,1.435-3.611,1.853-4.641c0.392-0.969,0.752-1.827,1.424-3.44c0.573-1.375,1.317-3.165,2.158-5.188
	c0.714,1.782,1.262,3.15,1.699,4.243c0.885,2.212,1.343,3.353,1.728,4.335c0.424,1.079,0.897,2.318,1.872,4.865l1.676,4.383
	l0.092,0.24h0.258h2.212h0.556l-0.209-0.508l-9.388-22.809l-0.338-0.824l-0.353,0.819l-9.805,22.809l-0.22,0.513h0.564H105.758
	L105.758,42.476z"/>
<path fill-rule="evenodd" clip-rule="evenodd" fill="#FFFFFF" d="M91.682,42.106v0.369h0.372h2.03h0.374v-0.369V20.167v-0.37h-0.374
	h-2.03h-0.372v0.37V42.106L91.682,42.106z"/>
<path fill-rule="evenodd" clip-rule="evenodd" fill="#FFFFFF" d="M54.019,42.106v0.369h0.373h9.68h0.375v-0.369v-1.873v-0.367
	h-0.375h-7.274V20.167v-0.37H56.42h-2.029h-0.373v0.37V42.106L54.019,42.106z"/>
<path fill-rule="evenodd" clip-rule="evenodd" fill="#FFFFFF" d="M27.657,42.476h0.255l0.094-0.234l1.719-4.328
	c1.022-2.575,1.499-3.775,1.941-4.859c0.41-1.009,0.788-1.915,1.492-3.606c0.571-1.371,1.324-3.18,2.096-5.039
	c0.761,1.902,1.333,3.329,1.784,4.451c0.84,2.102,1.272,3.183,1.64,4.118c0.402,1.025,0.855,2.214,1.79,4.657l1.761,4.6l0.091,0.24
	h0.258h2.212h0.557l-0.208-0.508l-9.39-22.809l-0.338-0.824l-0.353,0.819l-9.806,22.809l-0.22,0.513h0.564H27.657L27.657,42.476z"/>
<path fill-rule="evenodd" clip-rule="evenodd" fill="#FFFFFF" d="M73.297,42.106v0.369h0.373h9.681h0.375v-0.369v-1.873v-0.367
	h-0.375h-7.276V20.167v-0.37H75.7H73.67h-0.373v0.37V42.106z"/>
<path fill="#FFFFFF" d="M238.716,40.555c0.152,0.845,1.021,1.335,1.847,1.312c1.427-0.041,3.746-0.795,5.728-2.246
	c-0.181,0.543-0.334,1.014-0.418,1.272c-0.094,0.29-0.109,0.51,0.068,0.669c0.152,0.163,0.379,0.251,0.582,0.251
	c0.227,0,0.403-0.088,0.58-0.339c0.19-0.297,0.521-1.148,0.725-1.439c0.58-0.826,2.694-3.369,3.859-3.369
	c0.229,0,0.431,0.088,0.582,0.158c0.15,0.089,0.379,0.072,0.581-0.088c0.202-0.143,0.431-0.426,0.48-0.656
	c0.076-0.301-0.202-0.602-0.733-0.602h-0.025c-0.529,0-1.086,0.266-1.768,0.744c-0.986,0.674-1.568,1.245-2.254,1.954
	c-0.225,0.214-0.326,0.214-0.275-0.034c0.1-0.497,0.319-0.97,0.648-1.342c0.126-0.142,0.338-0.629,0.338-0.806
	c0.024-0.213-0.389-0.37-0.742-0.37c-0.253,0-0.574-0.012-0.776,0.148c-0.227,0.16-0.239,0.373-0.428,0.868
	c-0.163,0.425-0.442,1.235-0.716,2.05c-2.551,1.802-4.308,2.285-5.404,2.285c-0.743,0-0.947-0.506-0.912-1.107
	c1.592-0.717,2.49-0.933,3.689-1.756c0.501-0.345,0.896-0.836,0.896-1.385c0-0.966-0.932-1.469-1.803-1.316
	c-1.102,0.193-2.235,0.999-2.977,1.816c-0.849,0.935-1.262,1.985-1.369,2.693c-0.458,0.206-1.058,0.459-1.644,0.656
	c-0.573,0.194-2.362,0.867-2.121-0.557c0.104-0.621,1.148-3.213,1.536-4.01c0.086-0.177,0.209-0.205,0.476-0.23
	c2.345-0.221,2.774-0.236,3.403-0.365c0.412-0.084,0.66-0.395,0.145-0.407c-1.377-0.036-2.426-0.069-3.16-0.044
	c-0.196,0.008-0.387-0.002-0.316-0.141c0.08-0.162,0.23-0.545,0.561-1.08c0.033-0.054,0.217-0.277,0.32-0.399
	c0.103-0.121,0.283-0.404,0.289-0.479c0.021-0.311-0.568-0.4-0.786-0.4c-0.368,0-0.8,0.227-0.921,0.466
	c-0.203,0.398-0.836,1.599-0.961,1.834c-0.07,0.136-0.158,0.206-0.401,0.229c-0.464,0.047-0.436,0.009-0.801,0.063
	c-0.339,0.051-0.483,0.105-0.646,0.249c-0.164,0.141-0.191,0.385-0.008,0.502c0.123,0.076,0.293,0.072,0.512,0.047
	c0.243-0.028,0.338-0.008,0.631-0.028c0.219-0.015,0.258,0.024,0.184,0.179c-0.109,0.223-0.586,1.41-0.986,2.453
	c-1.118,1.054-2.742,2.467-3.725,2.467c-0.607,0-0.715-0.654-0.525-1.413c0.219-0.874,0.854-2.077,1.49-3.247
	c0.126-0.178-0.02-0.354-0.398-0.514c-0.15-0.07-0.617-0.003-0.794,0.086c-0.101,0.053-0.202,0.035-0.228-0.037
	c-0.152-0.14-0.404-0.354-0.656-0.354h-0.025c-0.279,0-0.986,0.089-2.023,0.745c-1.144,0.688-2.244,1.753-2.924,2.639
	c-0.049,0.017-0.104,0.04-0.162,0.074c-0.58,0.329-4.303,2.199-6.979,2.199c-1.047,0-2.057-0.646-2.111-1.706
	c-0.061-1.164,0.626-3.793,4.869-6.515c1.633-1.048,4.707-2.077,6.965-1.538c0.207,0.05,0.662-0.012,0.729-0.395
	c0.1-0.57-0.818-0.732-1.506-0.732h-0.028c-2.687-0.051-7.487,1.941-10.377,4.802c-1.362,1.349-2.529,2.775-2.575,4.388
	c-0.036,1.217,0.663,2.6,2.889,2.742c1.536,0.098,2.75-0.358,4.174-0.868c1.307-0.468,2.623-1.07,3.462-1.531
	c-0.39,0.624-0.48,1.001-0.469,1.226c0.042,0.855,0.834,0.873,1.062,0.873c0.378,0,0.859-0.162,1.467-0.535
	c0.682-0.408,2.098-1.506,2.451-1.844c0.152-0.105,0.203-0.088,0.203,0.018c0,0.195-0.105,0.709-0.055,1.082
	c0.129,1.081,0.965,1.279,1.57,1.279c0.962,0,2.564-0.958,3.713-1.979c-0.025,0.078-0.045,0.14-0.057,0.185
	c-0.298,1.155,0.09,1.758,1.202,1.758c0.221,0,0.753-0.036,1.115-0.142C236.974,41.294,238.009,40.884,238.716,40.555
	L238.716,40.555z M271.896,35.446h0.025c0.254,0,0.505,0.214,0.656,0.354c0.025,0.072,0.127,0.09,0.229,0.037
	c0.178-0.089,0.643-0.156,0.795-0.086c0.377,0.159,0.523,0.336,0.396,0.514c-0.979,1.802-1.642,3.551-2.429,5.46
	c-1.465,3.56-4.874,6.493-8.825,6.493c-0.539,0-3.08-0.088-3.022-0.727c0.026-0.301,0.552-0.759,1.005-0.637
	c0.355,0.095,1.518,0.58,2.387,0.661c3.602,0.33,6.023-3.009,7.161-5.972c0.361-0.939,0.624-1.629,0.732-1.984
	c0.046-0.154-0.036-0.229-0.197-0.09c-0.372,0.317-1.77,1.436-2.452,1.844c-0.607,0.373-1.087,0.535-1.467,0.535
	c-0.227,0-1.018-0.018-1.061-0.873c-0.002-0.025-0.002-0.055,0-0.085c-1.061,0.766-1.488,0.751-2.263,0.966
	c-0.671,0.186-1.831,0.094-1.366-1.627c0.188-0.703,0.819-2.199,1-2.655c0.215-0.546,0.604-1.087-0.105-1.087
	c-1.167,0-3.258,2.723-3.836,3.547c-0.203,0.291-0.536,1.143-0.726,1.439c-0.177,0.251-0.354,0.339-0.581,0.339
	c-0.203,0-0.43-0.088-0.582-0.251c-0.178-0.159-0.16-0.379-0.066-0.669c0.055-0.173,0.141-0.437,0.245-0.755
	c-0.942,0.666-1.993,1.191-2.85,1.461c-0.683,0.232-1.062,0.303-1.341,0.303c-0.652,0-1.206-0.336-0.988-1.009
	c0.246-0.764,1.098-3.357,1.439-4.252c0.19-0.495,0.202-0.708,0.431-0.868c0.202-0.16,0.522-0.148,0.775-0.148
	c0.354,0,0.767,0.157,0.741,0.37c0,0.177-0.211,0.664-0.338,0.806c-0.328,0.372-0.441,0.877-0.648,1.342
	c-0.445,0.994-0.563,1.479-0.752,2.156c-0.15,0.535,0.363,0.605,0.629,0.579c1.039-0.108,2.111-0.806,3.234-1.745
	c0.316-0.949,0.67-1.988,0.862-2.491c0.19-0.495,0.202-0.708,0.431-0.868c0.201-0.16,0.521-0.148,0.774-0.148
	c0.354,0,0.767,0.157,0.741,0.37c0,0.177-0.211,0.664-0.338,0.806c-0.328,0.372-0.547,0.845-0.648,1.342
	c-0.051,0.248,0.051,0.248,0.279,0.034c0.682-0.709,1.264-1.28,2.25-1.954c0.549-0.387,2.373-1.298,3.098-0.442
	c0.189,0.225-0.104,0.96-0.27,1.276c-0.395,0.744-0.865,1.688-1.117,2.414c-0.457,1.312-0.498,1.744,0.148,1.64
	c0.681-0.11,1.357-0.536,2.109-1.2c0.141-0.244,0.332-0.53,0.588-0.863c0.656-0.922,1.846-2.11,3.084-2.854
	C270.909,35.535,271.617,35.446,271.896,35.446L271.896,35.446z M271.238,36.403h-0.025c-0.354,0-0.886,0.338-1.567,0.906
	c-1.213,0.99-1.689,1.912-1.941,2.551c-0.15,0.336-0.138,0.814,0.19,0.814c0.202,0,0.437-0.123,0.917-0.425
	c0.43-0.283,1.137-0.904,1.896-1.612c0.304-0.301,0.834-1.063,0.936-1.188c0.102-0.178,0.177-0.443,0.127-0.654
	C271.719,36.582,271.566,36.403,271.238,36.403L271.238,36.403z M256.232,32.044c-0.404,0-0.765,0.105-0.995,0.672
	c-0.086,0.268-0.143,0.562-0.125,0.739c-0.003,0.249,0.184,0.415,0.518,0.556c0.289,0.123,0.549-0.031,0.659-0.26
	c0.173-0.369,0.317-0.677,0.507-1.099c0.146-0.331-0.057-0.608-0.537-0.608H256.232L256.232,32.044z M228.505,36.403
	c0.328,0,0.48,0.179,0.531,0.393c0.051,0.211-0.025,0.477-0.127,0.654c-0.1,0.124-0.631,0.887-0.936,1.188
	c-0.758,0.708-1.466,1.329-1.896,1.612c-0.479,0.302-0.713,0.425-0.914,0.425c-0.33,0-0.344-0.479-0.191-0.814
	c0.252-0.639,0.728-1.561,1.94-2.551c0.683-0.568,1.214-0.906,1.567-0.906H228.505L228.505,36.403z M240.491,39.118
	c0.414-1.105,1.991-2.935,2.623-2.935c0.328,0,0.664,0.27,0.562,0.694c-0.102,0.428-0.455,0.852-1.219,1.286
	C241.867,38.501,240.417,39.243,240.491,39.118z"/>
</svg>
