<?xml version="1.0" encoding="utf-8"?>
<!-- Generator: Adobe Illustrator 16.0.0, SVG Export Plug-In . SVG Version: 6.00 Build 0)  -->
<!DOCTYPE svg PUBLIC "-//W3C//DTD SVG 1.1//EN" "http://www.w3.org/Graphics/SVG/1.1/DTD/svg11.dtd">
<svg version="1.1" id="Layer_1" xmlns="http://www.w3.org/2000/svg" xmlns:xlink="http://www.w3.org/1999/xlink" x="0px" y="0px"
	 width="328px" height="225.333px" viewBox="0 0 328 225.333" enable-background="new 0 0 328 225.333" xml:space="preserve">
<g>
	<path fill-rule="evenodd" clip-rule="evenodd" fill="#FFFFFF" d="M309.765,142.799l-16.235-64.935h0.001l-16.855-67.417
		L154.018,75.865H15l16.233,64.937h0l16.855,67.417l122.66-65.42H309.765z M275.358,13.414l15.612,62.451H158.263L275.358,13.414z
		 M17.558,77.864h136.708H291.47l15.734,62.938H170.496H33.292L17.558,77.864z M49.406,205.251l-15.614-62.452h132.709
		L49.406,205.251z"/>
	<path fill-rule="evenodd" clip-rule="evenodd" fill="#FFFFFF" d="M237.016,164.521c0.383-0.272,0.814-0.819,0.908-1.263
		c0.144-0.581-0.382-1.162-1.385-1.162h-0.049c-1.001,0-2.055,0.513-3.346,1.436c-1.864,1.296-2.965,2.398-4.256,3.765
		c-0.431,0.41-0.622,0.41-0.526-0.068c0.191-0.955,0.605-1.866,1.228-2.583c0.238-0.273,0.637-1.212,0.637-1.552
		c0.048-0.411-0.733-0.713-1.402-0.713c-0.478,0-1.084-0.021-1.467,0.286c-0.43,0.308-0.454,0.72-0.812,1.673
		c-0.308,0.818-0.834,2.378-1.353,3.947c-4.822,3.472-8.146,4.404-10.219,4.404c-1.407,0-1.792-0.977-1.726-2.134
		c3.01-1.385,4.711-1.797,6.979-3.386c0.947-0.661,1.695-1.608,1.695-2.667c0-1.858-1.766-2.827-3.411-2.534
		c-2.083,0.372-4.229,1.922-5.63,3.496c-1.604,1.802-2.385,3.827-2.587,5.192c-0.867,0.396-2.002,0.881-3.108,1.264
		c-1.086,0.372-4.471,1.668-4.014-1.075c0.198-1.194,2.173-6.187,2.906-7.723c0.163-0.34,0.396-0.394,0.9-0.443
		c4.433-0.426,5.246-0.457,6.436-0.704c0.778-0.16,1.249-0.76,0.272-0.784c-2.602-0.068-4.587-0.133-5.976-0.082
		c-0.37,0.014-0.729-0.007-0.599-0.273c0.153-0.311,0.436-1.05,1.06-2.08c0.062-0.104,0.411-0.534,0.606-0.77
		c0.195-0.234,0.537-0.78,0.547-0.924c0.041-0.599-1.075-0.771-1.487-0.771c-0.696,0-1.512,0.435-1.742,0.897
		c-0.384,0.769-1.582,3.079-1.814,3.531c-0.136,0.266-0.301,0.398-0.76,0.443c-0.878,0.089-0.825,0.017-1.515,0.121
		c-0.642,0.099-0.914,0.205-1.224,0.477c-0.307,0.275-0.359,0.744-0.012,0.969c0.233,0.15,0.555,0.138,0.967,0.091
		c0.46-0.053,0.638-0.014,1.192-0.053c0.415-0.028,0.489,0.047,0.349,0.343c-0.207,0.43-1.107,2.715-1.864,4.727
		c-2.117,2.029-5.187,4.751-7.044,4.751c-1.147,0-1.353-1.261-0.994-2.72c0.414-1.685,1.612-4.004,2.817-6.257
		c0.239-0.341-0.036-0.683-0.751-0.99c-0.287-0.136-1.168-0.004-1.502,0.166c-0.192,0.103-0.383,0.069-0.431-0.067
		c-0.286-0.273-0.765-0.684-1.243-0.684h-0.048c-0.525,0-1.864,0.172-3.825,1.434c-2.163,1.325-4.247,3.378-5.53,5.083
		c-0.092,0.033-0.196,0.08-0.309,0.143c-1.094,0.634-8.136,4.238-13.193,4.238c-1.983,0-3.89-1.245-3.995-3.287
		c-0.115-2.24,1.184-7.305,9.208-12.551c3.089-2.018,8.905-3.999,13.173-2.961c0.393,0.096,1.252-0.024,1.379-0.762
		c0.188-1.1-1.547-1.411-2.849-1.411h-0.053c-5.082-0.1-14.163,3.739-19.627,9.25c-2.576,2.598-4.783,5.348-4.872,8.453
		c-0.065,2.342,1.255,5.008,5.465,5.281c2.904,0.19,5.199-0.689,7.896-1.673c2.47-0.899,4.961-2.06,6.545-2.948
		c-0.735,1.201-0.909,1.929-0.887,2.363c0.083,1.647,1.578,1.68,2.008,1.68c0.717,0,1.625-0.313,2.773-1.03
		c1.291-0.786,3.968-2.902,4.637-3.552c0.289-0.203,0.384-0.169,0.384,0.036c0,0.374-0.201,1.363-0.104,2.081
		c0.246,2.084,1.824,2.465,2.971,2.465c1.817,0,4.851-1.844,7.022-3.811c-0.049,0.148-0.085,0.269-0.107,0.355
		c-0.562,2.227,0.167,3.387,2.273,3.387c0.419,0,1.426-0.07,2.109-0.274c2.282-0.727,4.239-1.518,5.576-2.15
		c0.29,1.629,1.933,2.573,3.494,2.527c2.695-0.081,7.083-1.53,10.829-4.328c-0.339,1.047-0.629,1.953-0.787,2.452
		c-0.177,0.559-0.207,0.981,0.128,1.288c0.286,0.314,0.716,0.485,1.098,0.485c0.432,0,0.765-0.171,1.101-0.654
		c0.359-0.57,0.985-2.212,1.37-2.771c1.097-1.592,5.096-6.492,7.301-6.492c0.43,0,0.813,0.17,1.1,0.306
		C236.204,164.862,236.634,164.828,237.016,164.521z M218.603,163.457c0.622,0,1.256,0.521,1.064,1.34
		c-0.193,0.82-0.86,1.639-2.305,2.478c-1.116,0.648-3.86,2.077-3.719,1.837C214.427,166.981,217.408,163.457,218.603,163.457z
		 M191.74,165.897c-0.192,0.238-1.195,1.706-1.771,2.287c-1.434,1.366-2.773,2.562-3.586,3.107c-0.908,0.58-1.35,0.819-1.733,0.819
		c-0.621,0-0.647-0.923-0.361-1.571c0.478-1.229,1.379-3.004,3.672-4.915c1.292-1.094,2.295-1.743,2.964-1.743h0.049
		c0.621,0,0.908,0.343,1.004,0.753C192.074,165.045,191.93,165.555,191.74,165.897z"/>
	<path fill-rule="evenodd" clip-rule="evenodd" fill="#FFFFFF" d="M276.26,162.624c-0.287-0.136-1.167-0.004-1.501,0.166
		c-0.192,0.103-0.383,0.069-0.43-0.067c-0.287-0.273-0.765-0.684-1.243-0.684h-0.048c-0.527,0-1.865,0.172-3.825,1.434
		c-2.342,1.434-4.59,3.722-5.833,5.498c-0.481,0.644-0.842,1.194-1.11,1.662c-1.42,1.281-2.703,2.102-3.989,2.314
		c-1.223,0.201-1.143-0.632-0.282-3.158c0.479-1.399,1.37-3.218,2.113-4.65c0.314-0.61,0.87-2.027,0.51-2.461
		c-1.369-1.646-4.818,0.111-5.856,0.854c-1.865,1.296-2.967,2.398-4.258,3.765c-0.43,0.41-0.622,0.41-0.525-0.068
		c0.191-0.955,0.605-1.866,1.226-2.583c0.24-0.273,0.638-1.212,0.638-1.552c0.048-0.411-0.731-0.713-1.402-0.713
		c-0.478,0-1.084-0.021-1.466,0.286c-0.431,0.308-0.455,0.72-0.813,1.673c-0.365,0.967-1.033,2.969-1.631,4.8
		c-2.124,1.806-4.15,3.15-6.119,3.359c-0.5,0.052-1.471-0.085-1.188-1.114c0.358-1.303,0.582-2.237,1.423-4.156
		c0.392-0.893,0.605-1.866,1.227-2.583c0.239-0.273,0.638-1.212,0.638-1.552c0.047-0.411-0.733-0.713-1.402-0.713
		c-0.478,0-1.084-0.021-1.466,0.286c-0.431,0.308-0.456,0.72-0.814,1.673c-0.646,1.722-2.257,6.718-2.724,8.189
		c-0.412,1.294,0.637,1.943,1.871,1.943c0.527,0,1.245-0.137,2.534-0.585c1.622-0.517,3.607-1.531,5.39-2.812
		c-0.197,0.612-0.36,1.122-0.464,1.454c-0.176,0.559-0.208,0.981,0.128,1.288c0.286,0.314,0.716,0.485,1.1,0.485
		c0.43,0,0.764-0.171,1.099-0.654c0.358-0.57,0.985-2.214,1.371-2.771c1.095-1.591,5.048-6.834,7.254-6.834
		c1.343,0,0.606,1.043,0.198,2.094c-0.341,0.878-1.533,3.76-1.891,5.115c-0.877,3.312,1.317,3.49,2.584,3.134
		c1.465-0.413,2.274-0.386,4.28-1.859c-0.003,0.059-0.003,0.113,0,0.164c0.082,1.647,1.578,1.68,2.008,1.68
		c0.717,0,1.625-0.313,2.772-1.03c1.291-0.786,3.934-2.94,4.637-3.552c0.308-0.268,0.462-0.126,0.373,0.173
		c-0.206,0.684-0.701,2.013-1.383,3.822c-2.155,5.708-6.731,12.14-13.547,11.503c-1.64-0.154-3.841-1.092-4.513-1.273
		c-0.857-0.234-1.848,0.646-1.899,1.228c-0.107,1.229,4.695,1.399,5.717,1.399c7.472,0,13.919-5.652,16.69-12.509
		c1.488-3.68,2.739-7.048,4.593-10.518C277.25,163.273,276.976,162.932,276.26,162.624z M272.558,165.897
		c-0.191,0.238-1.195,1.706-1.77,2.287c-1.434,1.366-2.771,2.562-3.586,3.107c-0.908,0.58-1.349,0.819-1.733,0.819
		c-0.621,0-0.647-0.923-0.36-1.571c0.478-1.229,1.377-3.004,3.672-4.915c1.29-1.094,2.294-1.743,2.964-1.743h0.048
		c0.62,0,0.908,0.343,1.004,0.753C272.893,165.045,272.75,165.555,272.558,165.897z"/>
	<path fill-rule="evenodd" clip-rule="evenodd" fill="#FFFFFF" d="M243.414,155.483c-0.764,0-1.446,0.203-1.884,1.297
		c-0.16,0.513-0.269,1.082-0.231,1.424c-0.008,0.478,0.346,0.797,0.977,1.069c0.546,0.238,1.039-0.061,1.245-0.502
		c0.329-0.708,0.604-1.302,0.958-2.114c0.279-0.638-0.108-1.174-1.015-1.174H243.414z"/>
	<polygon fill-rule="evenodd" clip-rule="evenodd" fill="#FFFFFF" points="275.539,123.386 276.016,123.386 276.016,122.907 
		276.016,120.479 276.016,120.003 275.539,120.003 264.515,120.003 264.515,108.695 275.539,108.695 276.016,108.695 
		276.016,108.217 276.016,105.791 276.016,105.311 275.539,105.311 264.515,105.311 264.515,97.367 275.539,97.367 276.016,97.367 
		276.016,96.889 276.016,94.461 276.016,93.982 275.539,93.982 261.452,93.982 260.975,93.982 260.975,94.461 260.975,122.907 
		260.975,123.386 261.452,123.386 	"/>
	<path fill-rule="evenodd" clip-rule="evenodd" fill="#FFFFFF" d="M222.949,114.037c0.091,0.271,0.188,0.538,0.289,0.798
		l0.003,0.006v0.003c0.529,1.348,1.242,2.578,2.134,3.692c0.177,0.22,0.357,0.432,0.541,0.636c0.18,0.201,0.375,0.405,0.58,0.606
		h-0.001l0.001,0.006h0.004c0.999,0.99,2.146,1.826,3.433,2.502c0.251,0.132,0.506,0.257,0.764,0.373
		c0.269,0.126,0.535,0.235,0.796,0.339l0.003,0.004c0.81,0.313,1.636,0.567,2.473,0.752h0.002c0.146,0.031,0.312,0.065,0.492,0.099
		c1.009,0.19,2.045,0.287,3.108,0.287v0.002h0.008c1.126,0,2.267-0.124,3.416-0.367c0.227-0.049,0.448-0.099,0.669-0.155
		c0.206-0.052,0.431-0.113,0.674-0.187h0.011c1.152-0.34,2.261-0.782,3.324-1.33c0.217-0.111,0.421-0.222,0.616-0.332
		c0.196-0.109,0.397-0.229,0.607-0.356l0.005-0.003l0.232-0.141v-0.266v-3.031v-0.984l-0.775,0.609
		c-0.971,0.759-1.982,1.386-3.028,1.878c-0.203,0.094-0.409,0.186-0.617,0.271c-0.208,0.088-0.417,0.168-0.624,0.242v-0.001
		l-0.005,0.001v0.002c-0.627,0.223-1.261,0.4-1.904,0.532c-0.1,0.021-0.227,0.044-0.376,0.071c-0.773,0.134-1.552,0.202-2.333,0.202
		v-0.001h-0.01c-0.815,0-1.602-0.07-2.355-0.216c-0.754-0.141-1.486-0.357-2.194-0.644c-1.018-0.414-1.953-0.953-2.799-1.634
		c-0.151-0.12-0.314-0.257-0.485-0.412c-0.164-0.148-0.321-0.296-0.468-0.445v-0.002l-0.002-0.003l-0.002,0.003
		c-0.794-0.802-1.442-1.69-1.944-2.66c-0.097-0.186-0.19-0.376-0.277-0.576h-0.001c-0.083-0.185-0.164-0.383-0.244-0.599v0.002
		l-0.002-0.002c-0.223-0.597-0.4-1.232-0.533-1.905c-0.028-0.151-0.057-0.285-0.073-0.396c-0.137-0.82-0.206-1.688-0.206-2.597
		h0.001V108.7c0-2.604,0.57-4.854,1.712-6.736c0.223-0.364,0.468-0.716,0.732-1.058c0.265-0.339,0.552-0.665,0.861-0.978
		l0.001,0.002l0.002-0.005l0.002-0.004c1.102-1.116,2.367-1.954,3.797-2.511c1.437-0.561,3.048-0.841,4.831-0.841
		c0.789,0,1.556,0.072,2.3,0.212c0.748,0.138,1.476,0.351,2.188,0.629c0.711,0.282,1.416,0.64,2.112,1.073
		c0.701,0.437,1.396,0.952,2.082,1.544l0.773,0.667l0.013-1.022l0.041-2.86l0.002-0.234l-0.183-0.145
		c-0.938-0.736-1.96-1.347-3.059-1.825c-0.217-0.095-0.434-0.182-0.648-0.264c-0.212-0.078-0.434-0.156-0.663-0.229l-0.001-0.003
		l-0.005-0.001v0.001c-0.806-0.259-1.638-0.452-2.498-0.58c-0.867-0.13-1.76-0.193-2.689-0.193c-1.045,0-2.071,0.098-3.08,0.288
		c-1.008,0.188-1.997,0.476-2.967,0.853h-0.002c-1.398,0.546-2.651,1.252-3.756,2.105c-0.218,0.168-0.427,0.34-0.63,0.515
		c-0.206,0.18-0.405,0.365-0.598,0.552l-0.005,0.002l-0.005,0.002l0.002,0.003c-1.018,0.994-1.869,2.12-2.546,3.384
		c-0.131,0.245-0.26,0.498-0.379,0.754c-0.113,0.241-0.226,0.503-0.333,0.779h-0.002l-0.001,0.005v0.001
		c-0.317,0.8-0.568,1.617-0.75,2.455c-0.033,0.14-0.065,0.306-0.1,0.494c-0.188,1.015-0.285,2.069-0.285,3.16v0.009
		c0,1.595,0.188,3.102,0.567,4.52C222.781,113.489,222.862,113.763,222.949,114.037z"/>
	<polygon fill-rule="evenodd" clip-rule="evenodd" fill="#FFFFFF" points="188.128,123.386 188.604,123.386 188.604,122.907 
		188.604,101.206 207.891,124.051 208.732,125.049 208.732,123.743 208.732,94.461 208.732,93.982 208.256,93.982 205.849,93.982 
		205.369,93.982 205.369,94.461 205.369,115.754 186.063,92.946 185.223,91.952 185.223,93.254 185.223,122.907 185.223,123.386 
		185.699,123.386 	"/>
	<path fill-rule="evenodd" clip-rule="evenodd" fill="#FFFFFF" d="M173.46,123.386h0.707l-0.266-0.659l-11.964-29.573l-0.431-1.067
		l-0.451,1.062l-12.495,29.574l-0.281,0.664H149h2.626h0.326l0.118-0.304l2.311-5.916c1.246-3.192,1.828-4.681,2.362-6.018
		c0.499-1.256,0.957-2.368,1.814-4.46c0.729-1.784,1.677-4.104,2.75-6.726c0.91,2.31,1.607,4.085,2.165,5.499
		c1.128,2.869,1.711,4.349,2.201,5.623c0.541,1.398,1.145,3.005,2.387,6.309l2.136,5.682l0.117,0.311h0.328H173.46z"/>
	<polygon fill-rule="evenodd" clip-rule="evenodd" fill="#FFFFFF" points="134.162,93.982 133.688,93.982 133.688,94.461 
		133.688,122.907 133.688,123.386 134.162,123.386 136.75,123.386 137.225,123.386 137.225,122.907 137.225,94.461 137.225,93.982 
		136.75,93.982 	"/>
	<polygon fill-rule="evenodd" clip-rule="evenodd" fill="#FFFFFF" points="89.23,120.003 89.23,94.461 89.23,93.982 88.75,93.982 
		86.164,93.982 85.688,93.982 85.688,94.461 85.688,122.907 85.688,123.386 86.164,123.386 98.5,123.386 98.979,123.386 
		98.979,122.907 98.979,120.479 98.979,120.003 98.5,120.003 	"/>
	<path fill-rule="evenodd" clip-rule="evenodd" fill="#FFFFFF" d="M62.405,93.153l-0.432-1.067l-0.449,1.062l-12.497,29.574
		l-0.28,0.664h0.719h2.627h0.325l0.118-0.304l2.191-5.61c1.304-3.34,1.91-4.896,2.474-6.301c0.522-1.309,1.004-2.483,1.901-4.677
		c0.728-1.776,1.687-4.122,2.67-6.531c0.97,2.465,1.698,4.315,2.273,5.771c1.069,2.725,1.622,4.127,2.089,5.339
		c0.513,1.329,1.09,2.869,2.282,6.038l2.244,5.965l0.116,0.311h0.329h2.818h0.71l-0.266-0.659L62.405,93.153z"/>
	<polygon fill-rule="evenodd" clip-rule="evenodd" fill="#FFFFFF" points="113.798,120.003 113.798,94.461 113.798,93.982 
		113.32,93.982 110.734,93.982 110.258,93.982 110.258,94.461 110.258,122.907 110.258,123.386 110.734,123.386 123.071,123.386 
		123.548,123.386 123.548,122.907 123.548,120.479 123.548,120.003 123.071,120.003 	"/>
</g>
</svg>
