<?xml version="1.0" encoding="utf-8"?>
<!-- Generator: Adobe Illustrator 16.0.0, SVG Export Plug-In . SVG Version: 6.00 Build 0)  -->
<!DOCTYPE svg PUBLIC "-//W3C//DTD SVG 1.1//EN" "http://www.w3.org/Graphics/SVG/1.1/DTD/svg11.dtd">
<svg version="1.1" id="Layer_1" xmlns="http://www.w3.org/2000/svg" xmlns:xlink="http://www.w3.org/1999/xlink" x="0px" y="0px"
	 width="328px" height="225.333px" viewBox="0 0 328 225.333" enable-background="new 0 0 328 225.333" xml:space="preserve">
<g>
	<path fill="#FFFFFF" d="M292.193,140.86l-14.164-56.659l0,0l-14.707-58.824l-107.023,57.08H35l14.164,56.66l0,0l14.707,58.825
		l107.026-57.082H292.193z M262.173,27.966l13.622,54.491H160.003L262.173,27.966z M37.232,84.201h119.284h119.717l13.727,54.915
		H170.676H50.961L37.232,84.201z M65.021,195.351L51.396,140.86h115.793L65.021,195.351z"/>
	<path fill="#FFFFFF" d="M228.719,159.812c0.333-0.237,0.71-0.714,0.791-1.102c0.126-0.507-0.334-1.014-1.208-1.014h-0.042
		c-0.873,0-1.793,0.448-2.919,1.253c-1.627,1.132-2.586,2.094-3.714,3.286c-0.377,0.357-0.544,0.357-0.459-0.06
		c0.166-0.834,0.528-1.629,1.07-2.253c0.209-0.237,0.556-1.06,0.556-1.354c0.041-0.358-0.638-0.621-1.222-0.621
		c-0.418,0-0.946-0.021-1.282,0.249c-0.374,0.268-0.395,0.628-0.708,1.458c-0.267,0.715-0.729,2.074-1.179,3.444
		c-4.209,3.029-7.109,3.842-8.917,3.842c-1.229,0-1.564-0.853-1.507-1.86c2.626-1.209,4.11-1.567,6.088-2.956
		c0.827-0.575,1.48-1.402,1.48-2.328c0-1.62-1.54-2.466-2.976-2.209c-1.817,0.324-3.69,1.677-4.911,3.049
		c-1.399,1.574-2.081,3.342-2.259,4.531c-0.755,0.346-1.746,0.77-2.712,1.103c-0.948,0.325-3.901,1.457-3.502-0.937
		c0.172-1.042,1.896-5.398,2.534-6.74c0.145-0.296,0.348-0.344,0.786-0.386c3.868-0.371,4.577-0.397,5.615-0.615
		c0.679-0.139,1.089-0.662,0.236-0.685c-2.271-0.058-4.002-0.115-5.214-0.07c-0.324,0.013-0.638-0.006-0.522-0.237
		c0.133-0.271,0.381-0.918,0.924-1.815c0.054-0.09,0.357-0.466,0.528-0.673c0.171-0.204,0.469-0.68,0.479-0.807
		c0.035-0.521-0.938-0.672-1.298-0.672c-0.608,0-1.319,0.379-1.52,0.782c-0.337,0.671-1.381,2.687-1.584,3.082
		c-0.119,0.23-0.261,0.349-0.663,0.387c-0.767,0.075-0.719,0.015-1.322,0.105c-0.561,0.084-0.798,0.178-1.067,0.416
		c-0.268,0.239-0.312,0.647-0.011,0.844c0.204,0.131,0.484,0.122,0.844,0.079c0.402-0.046,0.558-0.013,1.04-0.046
		c0.361-0.024,0.427,0.042,0.306,0.3c-0.183,0.375-0.967,2.368-1.627,4.124c-1.849,1.772-4.527,4.146-6.146,4.146
		c-1.002,0-1.182-1.102-0.868-2.374c0.361-1.471,1.406-3.494,2.458-5.459c0.209-0.299-0.031-0.598-0.656-0.865
		c-0.25-0.119-1.019-0.004-1.31,0.146c-0.168,0.089-0.335,0.06-0.375-0.059c-0.251-0.237-0.669-0.597-1.085-0.597h-0.042
		c-0.457,0-1.627,0.149-3.339,1.251c-1.886,1.158-3.704,2.948-4.823,4.435c-0.08,0.029-0.172,0.071-0.271,0.124
		c-0.956,0.553-7.098,3.699-11.511,3.699c-1.73,0-3.396-1.087-3.485-2.868c-0.101-1.954,1.033-6.373,8.034-10.951
		c2.695-1.761,7.769-3.489,11.494-2.583c0.342,0.083,1.09-0.022,1.202-0.666c0.165-0.959-1.349-1.23-2.486-1.23h-0.046
		c-4.434-0.087-12.359,3.263-17.125,8.071c-2.249,2.267-4.175,4.665-4.252,7.375c-0.056,2.045,1.096,4.37,4.769,4.608
		c2.534,0.166,4.536-0.601,6.89-1.459c2.156-0.784,4.328-1.797,5.711-2.574c-0.641,1.049-0.793,1.686-0.774,2.062
		c0.071,1.437,1.377,1.466,1.753,1.466c0.623,0,1.416-0.272,2.418-0.896c1.128-0.688,3.462-2.535,4.046-3.102
		c0.254-0.178,0.336-0.147,0.336,0.032c0,0.323-0.173,1.188-0.092,1.814c0.216,1.818,1.594,2.151,2.593,2.151
		c1.586,0,4.232-1.607,6.128-3.325c-0.043,0.13-0.074,0.235-0.093,0.31c-0.492,1.942,0.145,2.956,1.983,2.956
		c0.364,0,1.244-0.062,1.84-0.24c1.991-0.635,3.698-1.324,4.864-1.875c0.254,1.422,1.686,2.245,3.049,2.204
		c2.351-0.071,6.182-1.335,9.45-3.775c-0.297,0.914-0.548,1.705-0.687,2.139c-0.154,0.488-0.181,0.856,0.111,1.124
		c0.252,0.273,0.625,0.424,0.957,0.424c0.379,0,0.669-0.15,0.962-0.571c0.313-0.497,0.86-1.93,1.197-2.418
		c0.956-1.391,4.446-5.665,6.369-5.665c0.376,0,0.711,0.148,0.962,0.268C228.01,160.111,228.385,160.082,228.719,159.812z
		 M212.653,158.886c0.541,0,1.095,0.454,0.926,1.169c-0.168,0.715-0.751,1.43-2.012,2.161c-0.973,0.563-3.366,1.812-3.245,1.604
		C209.007,161.959,211.609,158.886,212.653,158.886z M189.213,161.014c-0.167,0.208-1.042,1.487-1.546,1.997
		c-1.251,1.189-2.418,2.233-3.127,2.711c-0.793,0.504-1.18,0.713-1.512,0.713c-0.542,0-0.567-0.807-0.315-1.369
		c0.417-1.071,1.203-2.622,3.204-4.29c1.126-0.954,2.001-1.518,2.585-1.518h0.043c0.543,0,0.792,0.297,0.877,0.654
		C189.505,160.27,189.379,160.715,189.213,161.014z"/>
	<path fill="#FFFFFF" d="M262.959,158.158c-0.249-0.12-1.019-0.004-1.309,0.145c-0.166,0.091-0.334,0.061-0.375-0.058
		c-0.251-0.238-0.668-0.598-1.084-0.598h-0.042c-0.459,0-1.628,0.151-3.338,1.253c-2.043,1.252-4.005,3.247-5.09,4.797
		c-0.421,0.562-0.735,1.041-0.97,1.45c-1.239,1.117-2.358,1.834-3.48,2.019c-1.066,0.175-0.998-0.551-0.247-2.756
		c0.419-1.219,1.197-2.809,1.844-4.058c0.274-0.531,0.759-1.769,0.446-2.147c-1.195-1.437-4.203,0.098-5.11,0.745
		c-1.628,1.132-2.589,2.094-3.715,3.286c-0.376,0.357-0.543,0.357-0.458-0.06c0.166-0.834,0.527-1.629,1.067-2.253
		c0.211-0.237,0.558-1.06,0.558-1.354c0.041-0.358-0.637-0.621-1.223-0.621c-0.418,0-0.945-0.021-1.279,0.249
		c-0.377,0.268-0.398,0.628-0.71,1.458c-0.318,0.845-0.9,2.592-1.423,4.189c-1.854,1.575-3.622,2.748-5.338,2.931
		c-0.438,0.046-1.283-0.073-1.038-0.971c0.312-1.138,0.51-1.952,1.243-3.626c0.342-0.78,0.527-1.629,1.069-2.252
		c0.21-0.237,0.557-1.06,0.557-1.355c0.041-0.358-0.639-0.621-1.224-0.621c-0.415,0-0.945-0.021-1.279,0.249
		c-0.375,0.269-0.397,0.628-0.71,1.458c-0.564,1.504-1.967,5.863-2.377,7.146c-0.359,1.128,0.556,1.695,1.633,1.695
		c0.46,0,1.088-0.12,2.213-0.512c1.414-0.449,3.146-1.334,4.701-2.454c-0.171,0.536-0.312,0.982-0.403,1.271
		c-0.154,0.488-0.182,0.855,0.112,1.124c0.251,0.273,0.623,0.422,0.958,0.422c0.376,0,0.669-0.148,0.96-0.571
		c0.313-0.496,0.861-1.929,1.197-2.417c0.958-1.388,4.405-5.962,6.33-5.962c1.172,0,0.528,0.911,0.173,1.826
		c-0.299,0.767-1.339,3.281-1.65,4.464c-0.766,2.89,1.149,3.045,2.253,2.733c1.278-0.359,1.986-0.338,3.735-1.623
		c-0.003,0.054-0.003,0.1,0,0.144c0.07,1.439,1.377,1.467,1.752,1.467c0.625,0,1.417-0.273,2.418-0.899
		c1.126-0.686,3.434-2.565,4.046-3.1c0.269-0.234,0.403-0.109,0.325,0.15c-0.179,0.598-0.611,1.759-1.206,3.336
		c-1.88,4.98-5.872,10.593-11.822,10.037c-1.43-0.136-3.351-0.952-3.938-1.11c-0.745-0.206-1.611,0.563-1.656,1.07
		c-0.094,1.073,4.097,1.22,4.988,1.22c6.52,0,12.146-4.931,14.563-10.916c1.3-3.21,2.392-6.147,4.007-9.176
		C263.824,158.724,263.585,158.426,262.959,158.158z M259.732,161.014c-0.168,0.208-1.044,1.487-1.545,1.997
		c-1.254,1.189-2.417,2.233-3.129,2.711c-0.793,0.504-1.178,0.713-1.513,0.713c-0.543,0-0.564-0.807-0.314-1.369
		c0.418-1.071,1.202-2.622,3.204-4.29c1.124-0.954,2.002-1.518,2.586-1.518h0.042c0.54,0,0.791,0.297,0.877,0.654
		C260.021,160.27,259.896,160.715,259.732,161.014z"/>
	<path fill="#FFFFFF" d="M234.299,151.926c-0.666,0-1.26,0.178-1.644,1.131c-0.139,0.449-0.233,0.945-0.201,1.243
		c-0.007,0.417,0.303,0.695,0.853,0.933c0.478,0.207,0.907-0.055,1.088-0.438c0.286-0.617,0.527-1.137,0.836-1.845
		c0.241-0.556-0.096-1.024-0.887-1.024H234.299z"/>
	<polygon fill="#FFFFFF" points="262.332,123.919 262.747,123.919 262.747,123.502 262.747,121.384 262.747,120.969 
		262.332,120.969 252.715,120.969 252.715,111.103 262.332,111.103 262.747,111.103 262.747,110.685 262.747,108.569 
		262.747,108.149 262.332,108.149 252.715,108.149 252.715,101.22 262.332,101.22 262.747,101.22 262.747,100.802 262.747,98.682 
		262.747,98.265 262.332,98.265 250.04,98.265 249.623,98.265 249.623,98.682 249.623,123.502 249.623,123.919 250.04,123.919 	"/>
	<path fill="#FFFFFF" d="M216.443,115.765c0.08,0.235,0.165,0.468,0.252,0.694l0.005,0.006v0.003c0.46,1.176,1.082,2.25,1.86,3.222
		c0.156,0.191,0.312,0.376,0.473,0.555c0.158,0.175,0.326,0.354,0.506,0.529l0,0v0.004h0.003c0.873,0.864,1.873,1.592,2.998,2.183
		c0.217,0.118,0.441,0.226,0.666,0.326c0.233,0.111,0.466,0.204,0.693,0.296l0.002,0.004c0.708,0.272,1.428,0.496,2.156,0.655h0.004
		c0.128,0.026,0.271,0.058,0.429,0.087c0.88,0.166,1.784,0.251,2.713,0.251v0.003h0.006c0.983,0,1.978-0.109,2.981-0.32
		c0.199-0.045,0.393-0.087,0.584-0.136c0.179-0.046,0.377-0.1,0.589-0.164h0.011c1.006-0.298,1.972-0.684,2.899-1.161
		c0.188-0.096,0.367-0.193,0.537-0.289c0.171-0.096,0.347-0.2,0.531-0.311l0.003-0.003l0.204-0.122v-0.233v-2.645v-0.857
		l-0.678,0.531c-0.847,0.663-1.73,1.21-2.642,1.639c-0.177,0.081-0.357,0.161-0.539,0.237c-0.181,0.075-0.363,0.146-0.544,0.211
		v-0.002l-0.005,0.002v0.001c-0.546,0.194-1.1,0.35-1.661,0.463c-0.086,0.021-0.198,0.038-0.328,0.063
		c-0.675,0.117-1.355,0.177-2.036,0.177v-0.002h-0.009c-0.711,0-1.397-0.061-2.055-0.188c-0.659-0.123-1.297-0.31-1.915-0.561
		c-0.888-0.361-1.705-0.832-2.441-1.428c-0.132-0.104-0.273-0.224-0.424-0.358c-0.143-0.128-0.28-0.259-0.407-0.389v-0.001
		l-0.002-0.002l-0.001,0.002c-0.694-0.699-1.259-1.475-1.696-2.32c-0.084-0.162-0.167-0.329-0.242-0.502h-0.002
		c-0.07-0.162-0.144-0.334-0.214-0.524v0.002l-0.002-0.002c-0.193-0.52-0.349-1.075-0.463-1.661
		c-0.025-0.131-0.051-0.249-0.065-0.346c-0.117-0.716-0.18-1.473-0.18-2.266h0.003v-0.009c0-2.272,0.496-4.236,1.492-5.877
		c0.195-0.318,0.408-0.626,0.639-0.923c0.231-0.297,0.481-0.582,0.751-0.854v0.002l0.002-0.005l0.002-0.003
		c0.962-0.973,2.064-1.704,3.314-2.191c1.253-0.489,2.658-0.734,4.213-0.734c0.688,0,1.357,0.063,2.009,0.185
		c0.651,0.119,1.287,0.307,1.908,0.548c0.622,0.246,1.236,0.558,1.844,0.935c0.61,0.382,1.217,0.832,1.816,1.349l0.675,0.583
		l0.012-0.892l0.036-2.496l0.001-0.204l-0.16-0.126c-0.818-0.643-1.709-1.176-2.669-1.593c-0.19-0.082-0.379-0.159-0.567-0.23
		c-0.184-0.068-0.377-0.136-0.576-0.2l-0.002-0.002l-0.004-0.001v0.001c-0.703-0.226-1.43-0.395-2.18-0.506
		c-0.757-0.114-1.535-0.168-2.346-0.168c-0.912,0-1.807,0.085-2.687,0.252c-0.879,0.163-1.742,0.415-2.589,0.744h-0.002
		c-1.22,0.477-2.313,1.092-3.277,1.836c-0.189,0.147-0.372,0.297-0.55,0.451c-0.178,0.157-0.354,0.317-0.522,0.481l-0.004,0.002
		l-0.004,0.002l0.002,0.002c-0.888,0.868-1.633,1.85-2.221,2.953c-0.116,0.214-0.227,0.435-0.332,0.657
		c-0.099,0.212-0.196,0.44-0.291,0.681h-0.001l-0.002,0.005l0,0c-0.275,0.698-0.497,1.411-0.654,2.143
		c-0.028,0.121-0.057,0.266-0.087,0.431c-0.164,0.885-0.249,1.806-0.249,2.757v0.008c0,1.393,0.165,2.707,0.497,3.943
		C216.298,115.286,216.367,115.524,216.443,115.765z"/>
	<polygon fill="#FFFFFF" points="186.062,123.919 186.477,123.919 186.477,123.502 186.477,104.568 203.306,124.502 
		204.039,125.373 204.039,124.233 204.039,98.682 204.039,98.265 203.624,98.265 201.524,98.265 201.104,98.265 201.104,98.682 
		201.104,117.262 184.261,97.359 183.526,96.495 183.526,97.629 183.526,123.502 183.526,123.919 183.942,123.919 	"/>
	<path fill="#FFFFFF" d="M173.263,123.919h0.617l-0.233-0.572l-10.438-25.804l-0.376-0.931l-0.394,0.927l-10.902,25.805
		l-0.246,0.579h0.63h2.292h0.284l0.103-0.266l2.016-5.161c1.088-2.784,1.595-4.085,2.062-5.251c0.435-1.096,0.834-2.065,1.583-3.891
		c0.636-1.557,1.462-3.581,2.398-5.87c0.795,2.016,1.403,3.565,1.89,4.799c0.983,2.503,1.491,3.796,1.92,4.906
		c0.471,1.22,0.998,2.623,2.083,5.506l1.862,4.957l0.104,0.271h0.286h2.459v-0.003H173.263z"/>
	<polygon fill="#FFFFFF" points="138.974,98.265 138.561,98.265 138.561,98.682 138.561,123.502 138.561,123.919 138.974,123.919 
		141.233,123.919 141.646,123.919 141.646,123.502 141.646,98.682 141.646,98.265 141.233,98.265 	"/>
	<polygon fill="#FFFFFF" points="99.769,120.969 99.769,98.682 99.769,98.265 99.35,98.265 97.093,98.265 96.678,98.265 
		96.678,98.682 96.678,123.502 96.678,123.919 97.093,123.919 107.858,123.919 108.275,123.919 108.275,123.502 108.275,121.384 
		108.275,120.969 107.858,120.969 	"/>
	<path fill="#FFFFFF" d="M76.363,97.541l-0.376-0.93l-0.393,0.926L64.689,123.34l-0.244,0.579h0.628h2.292h0.285l0.104-0.264
		l1.91-4.896c1.139-2.914,1.667-4.272,2.159-5.498c0.456-1.142,0.876-2.167,1.659-4.08c0.635-1.55,1.472-3.598,2.33-5.7
		c0.847,2.151,1.481,3.766,1.983,5.037c0.932,2.377,1.416,3.6,1.822,4.66c0.448,1.159,0.951,2.502,1.991,5.268l1.958,5.206
		l0.102,0.271h0.287h2.458h0.62l-0.232-0.575L76.363,97.541z"/>
	<polygon fill="#FFFFFF" points="121.206,120.969 121.206,98.682 121.206,98.265 120.789,98.265 118.531,98.265 118.116,98.265 
		118.116,98.682 118.116,123.502 118.116,123.919 118.531,123.919 129.297,123.919 129.712,123.919 129.712,123.502 
		129.712,121.384 129.712,120.969 129.297,120.969 	"/>
</g>
</svg>
